<svg viewBox="0 0 512.001 512.001" xmlns="http://www.w3.org/2000/svg" xmlns:xlink="http://www.w3.org/1999/xlink" id="Layer_1" overflow="hidden"><path d="M505.328 498.2 18.105 10.977C15.794 8.666 12.314 7.974 9.295 9.225 6.274 10.475 4.304 13.425 4.304 16.694L4.304 503.917C4.304 508.383 7.924 512.001 12.388 512.001L499.611 512.001C502.881 512.001 505.828 510.032 507.08 507.01 508.332 503.989 507.64 500.512 505.328 498.2ZM85.149 431.156 85.149 192.304 324.825 431.156 85.149 431.156 85.149 431.156Z" fill="#9BAAAB"/><path d="M261.718 254.588 204.782 311.524 324.826 431.156 85.149 431.156 6.673 509.633C8.136 511.096 10.157 512.001 12.389 512.001L499.612 512.001C502.882 512.001 505.829 510.032 507.081 507.01 508.333 503.988 507.64 500.512 505.328 498.199L261.718 254.588Z" fill="#687F82"/><g><path d="M77.066 461.338C72.601 461.338 68.982 464.957 68.982 469.422L68.982 512 85.15 512 85.15 469.422C85.15 464.958 81.531 461.338 77.066 461.338Z" fill="#365558"/><path d="M141.741 461.338C137.276 461.338 133.657 464.957 133.657 469.422L133.657 512 149.826 512 149.826 469.422C149.826 464.958 146.206 461.338 141.741 461.338Z" fill="#365558"/><path d="M206.417 461.338C201.952 461.338 198.333 464.957 198.333 469.422L198.333 512 214.502 512 214.502 469.422C214.502 464.958 210.882 461.338 206.417 461.338Z" fill="#365558"/><path d="M271.093 461.338C266.628 461.338 263.009 464.957 263.009 469.422L263.009 512 279.178 512 279.178 469.422C279.177 464.958 275.557 461.338 271.093 461.338Z" fill="#365558"/><path d="M335.768 461.338C331.303 461.338 327.684 464.957 327.684 469.422L327.684 512 343.853 512 343.853 469.422C343.853 464.958 340.233 461.338 335.768 461.338Z" fill="#365558"/><path d="M400.444 461.338C395.979 461.338 392.36 464.957 392.36 469.422L392.36 512 408.529 512 408.529 469.422C408.528 464.958 404.909 461.338 400.444 461.338Z" fill="#365558"/></g><g><path d="M176.234 231.74C174.165 231.74 172.096 230.951 170.518 229.373L49.79 108.645C46.633 105.487 46.633 100.369 49.79 97.211 52.947 94.055 58.066 94.055 61.222 97.211L181.95 217.939C185.107 221.097 185.107 226.215 181.95 229.373 180.372 230.95 178.304 231.74 176.234 231.74Z" fill="#FFFFFF"/><path d="M219.351 279.168C217.282 279.168 215.213 278.379 213.635 276.801L192.076 255.242C188.919 252.084 188.919 246.966 192.076 243.808 195.233 240.652 200.352 240.652 203.508 243.808L225.067 265.367C228.224 268.525 228.224 273.643 225.067 276.801 223.489 278.379 221.421 279.168 219.351 279.168Z" fill="#FFFFFF"/></g><path d="M444.352 214.61 257.749 28.007C256.233 26.491 254.177 25.64 252.033 25.64 249.889 25.64 247.832 26.492 246.317 28.007L160.95 113.374C159.433 114.891 158.582 116.946 158.582 119.091 158.582 121.235 159.434 123.291 160.95 124.808L347.553 311.41C349.131 312.988 351.201 313.777 353.269 313.777 355.337 313.777 357.407 312.988 358.985 311.41L444.352 226.044C445.869 224.527 446.72 222.472 446.72 220.327 446.72 218.182 445.869 216.127 444.352 214.61Z" fill="#FD6A33"/><path d="M203.997 70.326 160.949 113.374C159.432 114.891 158.581 116.946 158.581 119.091 158.581 121.235 159.433 123.291 160.949 124.808L347.552 311.41C349.13 312.988 351.2 313.777 353.268 313.777 355.337 313.777 357.406 312.988 358.984 311.41L402.032 268.362 203.997 70.326Z" fill="#F0353D"/><path d="M416.912 242.049 230.309 55.447C227.152 52.291 222.033 52.291 218.877 55.447L188.389 85.935C186.872 87.452 186.021 89.507 186.021 91.652 186.021 93.796 186.873 95.852 188.389 97.369L374.992 283.971C376.57 285.549 378.64 286.338 380.708 286.338 382.777 286.338 384.846 285.549 386.424 283.971L416.912 253.483C418.429 251.966 419.28 249.911 419.28 247.766 419.281 245.621 418.429 243.565 416.912 242.049Z" fill="#4ACFD9"/><path d="M203.997 70.326 188.389 85.934C186.872 87.451 186.021 89.506 186.021 91.651 186.021 93.795 186.873 95.851 188.389 97.368L374.992 283.97C376.57 285.548 378.64 286.337 380.708 286.337 382.777 286.337 384.846 285.548 386.424 283.97L402.032 268.362 203.997 70.326Z" fill="#0295AA"/><g><path d="M139.607 6.665C137.696 8.576 136.866 11.316 137.396 13.967L158.738 120.676 253.618 25.796 146.909 4.454C144.258 3.923 141.518 4.753 139.607 6.665Z" fill="#FFD1A9"/><path d="M139.994 6.324C139.865 6.437 139.73 6.543 139.607 6.666 137.696 8.577 136.866 11.317 137.396 13.968L158.738 120.677 206.543 72.872 139.994 6.324Z" fill="#FFD1A9"/></g><path d="M139.607 6.665C137.696 8.576 136.866 11.316 137.396 13.967L146.542 59.7 192.641 13.6 146.909 4.454C144.258 3.923 141.518 4.753 139.607 6.665Z" fill="#687F82"/><path d="M139.994 6.324C139.865 6.437 139.73 6.543 139.607 6.666 137.696 8.577 136.866 11.317 137.396 13.968L146.542 59.701 169.956 36.286 139.994 6.324Z" fill="#365558"/><path d="M444.352 214.61 347.551 311.411 408.528 372.387C410.106 373.965 412.176 374.754 414.244 374.754 416.312 374.754 418.382 373.965 419.96 372.387L505.327 287.021C506.844 285.504 507.695 283.448 507.695 281.304 507.695 279.16 506.843 277.104 505.327 275.587L444.352 214.61Z" fill="#CDD4D5"/><path d="M396.316 262.646 347.551 311.411 408.528 372.387C410.106 373.965 412.176 374.754 414.244 374.754 416.312 374.754 418.382 373.965 419.96 372.387L463.008 329.339 396.316 262.646Z" fill="#9BAAAB"/><path d="M456.495 292.103C454.426 292.103 452.357 291.314 450.779 289.736L429.22 268.177C426.063 265.019 426.063 259.901 429.22 256.743 432.377 253.587 437.496 253.587 440.652 256.743L462.211 278.302C465.368 281.46 465.368 286.578 462.211 289.736 460.633 291.314 458.565 292.103 456.495 292.103Z" fill="#FFFFFF"/><path d="M505.328 100.133 413.863 8.667C402.305-2.889 383.5-2.888 371.941 8.667L344.501 36.107C332.943 47.666 332.943 66.471 344.501 78.03L435.965 169.496C437.481 171.012 439.537 171.863 441.681 171.863 443.825 171.863 445.882 171.011 447.397 169.496L505.325 111.568C508.487 108.409 508.487 103.291 505.328 100.133Z" fill="#4ACFD9"/><path d="M441.684 171.863C443.828 171.863 445.885 171.011 447.4 169.496L505.328 111.568C508.485 108.41 508.485 103.292 505.328 100.134L444.352 39.158 374.991 108.519 435.967 169.496C437.484 171.011 439.54 171.863 441.684 171.863Z" fill="#FFD1A9"/><path d="M358.465 22.144 344.503 36.106C332.945 47.665 332.945 66.47 344.503 78.029L435.967 169.495C437.483 171.011 439.539 171.862 441.683 171.862 443.827 171.862 445.884 171.01 447.399 169.495L476.607 140.287 358.465 22.144Z" fill="#0295AA"/><path d="M409.914 73.594 374.99 108.518 435.966 169.495C437.482 171.011 439.538 171.862 441.682 171.862 443.826 171.862 445.883 171.01 447.398 169.495L476.606 140.287 409.914 73.594Z" fill="#FF8C29"/><path d="M463.026 113.934C460.957 113.934 458.888 113.145 457.31 111.567L432.92 87.176C429.763 84.018 429.763 78.9 432.92 75.742 436.077 72.586 441.196 72.586 444.352 75.742L468.742 100.133C471.899 103.291 471.899 108.409 468.742 111.567 467.164 113.145 465.095 113.934 463.026 113.934Z" fill="#FFFFFF"/><g></g><g></g><g></g><g></g><g></g><g></g><g></g><g></g><g></g><g></g><g></g><g></g><g></g><g></g><g></g></svg>