<svg viewBox="0 0 512 512" xmlns="http://www.w3.org/2000/svg" xmlns:xlink="http://www.w3.org/1999/xlink" id="Layer_1" overflow="hidden"><path d="M305.865 72.35C304.492 62.176 299.246 53.147 291.085 46.922 274.22 34.062 250.06 37.324 237.221 54.172 228.107 66.114 216.198 99.103 208.271 123.075 200.345 99.103 188.435 66.114 179.321 54.172 166.473 37.32 142.313 34.071 125.457 46.922 117.296 53.146 112.051 62.177 110.677 72.35 109.312 82.524 111.982 92.622 118.211 100.782 132.431 119.434 196.77 155.409 204.066 159.447 205.38 160.176 206.829 160.536 208.269 160.536 209.706 160.536 211.085 160.063 212.369 159.363L212.472 159.447C219.769 155.408 284.108 119.434 298.327 100.782 304.56 92.622 307.229 82.524 305.865 72.35ZM132.008 90.257C128.593 85.782 127.127 80.245 127.881 74.664 128.635 69.083 131.508 64.134 135.983 60.72 139.797 57.817 144.279 56.41 148.737 56.41 155.093 56.41 161.381 59.266 165.526 64.699 173.221 74.788 185.229 108.436 193.348 133.314 168.06 118.389 139.195 99.685 132.008 90.257ZM284.534 90.257C277.348 99.677 248.491 118.384 223.195 133.308 231.313 108.435 243.322 74.787 251.017 64.698 255.161 59.266 261.449 56.409 267.806 56.409 272.256 56.409 276.755 57.816 280.56 60.719 285.035 64.134 287.907 69.083 288.662 74.663 289.417 80.244 287.949 85.782 284.534 90.257Z" fill="#00C3FF"/><g><path d="M208.271 169.214C207.178 169.214 206.084 169.007 205.05 168.596L96.575 125.206C92.125 123.422 89.956 118.375 91.736 113.922 93.516 109.469 98.609 107.325 103.015 109.087L208.27 151.188 313.524 109.086C317.931 107.328 323.024 109.468 324.803 113.921 326.582 118.374 324.414 123.421 319.964 125.205L211.489 168.595C210.458 169.007 209.365 169.214 208.271 169.214Z" fill="#00AAF0"/><path d="M477.288 299.384 373.153 299.384 373.153 420.876 503.322 420.876C508.114 420.876 512 416.99 512 412.198L512 334.096C512 314.925 496.459 299.384 477.288 299.384Z" fill="#00AAF0"/></g><path d="M373.153 316.74 477.289 316.74C486.875 316.74 494.645 324.51 494.645 334.096L494.645 420.876 373.153 420.876 373.153 316.74Z" fill="#0096DC"/><path d="M493.954 420.875C489.733 391.448 464.492 368.807 433.898 368.807 403.304 368.807 378.063 391.448 373.842 420.875L493.954 420.875Z" fill="#007DC8"/><path d="M442.576 195.248 373.152 195.248 373.152 229.96 464.271 229.96C466.667 229.96 468.61 228.017 468.61 225.621L468.61 221.282C468.61 206.904 456.955 195.248 442.576 195.248Z" fill="#00AAF0"/><path d="M364.475 160.536 52.068 160.536C47.276 160.536 43.39 164.422 43.39 169.214L43.39 342.773 26.034 342.773C21.237 342.773 17.356 346.659 17.356 351.451 17.356 356.243 21.237 360.129 26.034 360.129L78.102 360.129C82.899 360.129 86.78 364.015 86.78 368.807 86.78 373.599 82.899 377.485 78.102 377.485L43.39 377.485 43.39 412.197C43.39 416.989 47.276 420.875 52.068 420.875L373.153 420.875 373.153 169.214C373.153 164.422 369.267 160.536 364.475 160.536Z" fill="#00C3FF"/><path d="M178.501 377.486C169.414 372.059 158.882 368.808 147.525 368.808 136.168 368.808 125.636 372.059 116.549 377.486L8.678 377.486C3.881 377.486 0 381.372 0 386.164 0 390.956 3.881 394.842 8.678 394.842L43.39 394.842 43.39 412.198C43.39 416.99 47.276 420.876 52.068 420.876L373.153 420.876 373.153 377.486 178.501 377.486Z" fill="#00AAF0"/><g><circle cx="433.898" cy="429.55" r="43.39" fill="#5B5D6E"/><circle cx="147.525" cy="429.55" r="43.39" fill="#5B5D6E"/></g><path d="M477.288 299.384 459.932 229.96 373.153 229.96 373.153 299.384Z" fill="#B4E6FF"/><circle cx="147.525" cy="429.55" r="26.034" fill="#C7CFE2"/><circle cx="147.525" cy="429.55" r="8.678" fill="#7F8499"/><circle cx="433.898" cy="429.55" r="26.034" fill="#C7CFE2"/><circle cx="433.898" cy="429.55" r="8.678" fill="#7F8499"/><path d="M407.864 247.316 464.271 247.316 459.932 229.96 373.152 229.96 373.152 299.384 399.186 299.384 399.186 255.994C399.186 251.202 403.072 247.316 407.864 247.316Z" fill="#9BD6FF"/><path d="M373.153 212.604 442.577 212.604C447.369 212.604 451.255 216.49 451.255 221.282L451.255 229.96 373.153 229.96 373.153 212.604Z" fill="#0096DC"/><rect x="485.966" y="334.092" width="26.034" height="34.712" fill="#F1F4FB"/><path d="M468.61 334.096 468.61 351.452C468.61 361.037 476.381 368.808 485.966 368.808L494.644 368.808 494.644 334.096 468.61 334.096Z" fill="#FFC850"/><g><path d="M130.169 221.282 95.458 221.282C90.661 221.282 86.78 225.163 86.78 229.96L86.78 299.384C86.78 304.181 90.661 308.062 95.458 308.062 100.255 308.062 104.136 304.181 104.136 299.384L104.136 273.35 121.492 273.35C126.289 273.35 130.17 269.469 130.17 264.672 130.17 259.875 126.289 255.994 121.492 255.994L104.136 255.994 104.136 238.638 130.17 238.638C134.967 238.638 138.848 234.757 138.848 229.96 138.848 225.163 134.966 221.282 130.169 221.282Z" fill="#FFFFFF"/><path d="M208.271 251.655C208.271 234.909 194.643 221.282 177.898 221.282L156.203 221.282C151.406 221.282 147.525 225.163 147.525 229.96L147.525 299.384C147.525 304.181 151.406 308.062 156.203 308.062 161 308.062 164.881 304.181 164.881 299.384L164.881 282.028 177.593 282.028 192.373 304.198C194.042 306.707 196.797 308.063 199.602 308.063 201.254 308.063 202.925 307.588 204.407 306.605 208.399 303.944 209.475 298.563 206.814 294.571L194.946 276.769C202.979 271.298 208.271 262.085 208.271 251.655ZM164.881 238.638 177.898 238.638C185.076 238.638 190.915 244.477 190.915 251.655 190.915 258.833 185.076 264.672 177.898 264.672L164.881 264.672 164.881 238.638Z" fill="#FFFFFF"/><path d="M260.339 238.638C265.136 238.638 269.017 234.757 269.017 229.96 269.017 225.163 265.136 221.282 260.339 221.282L225.627 221.282C220.83 221.282 216.949 225.163 216.949 229.96L216.949 299.384C216.949 304.181 220.83 308.062 225.627 308.062L260.339 308.062C265.136 308.062 269.017 304.181 269.017 299.384 269.017 294.587 265.136 290.706 260.339 290.706L234.305 290.706 234.305 273.35 251.661 273.35C256.458 273.35 260.339 269.469 260.339 264.672 260.339 259.875 256.458 255.994 251.661 255.994L234.305 255.994 234.305 238.638 260.339 238.638 260.339 238.638Z" fill="#FFFFFF"/><path d="M321.085 290.706 295.051 290.706 295.051 273.35 303.729 273.35C308.526 273.35 312.407 269.469 312.407 264.672 312.407 259.875 308.526 255.994 303.729 255.994L295.051 255.994 295.051 238.638 321.085 238.638C325.882 238.638 329.763 234.757 329.763 229.96 329.763 225.163 325.882 221.282 321.085 221.282L286.373 221.282C281.576 221.282 277.695 225.163 277.695 229.96L277.695 299.384C277.695 304.181 281.576 308.062 286.373 308.062L321.085 308.062C325.882 308.062 329.763 304.181 329.763 299.384 329.763 294.587 325.882 290.706 321.085 290.706Z" fill="#FFFFFF"/></g><g></g><g></g><g></g><g></g><g></g><g></g><g></g><g></g><g></g><g></g><g></g><g></g><g></g><g></g><g></g></svg>