<svg width="512" height="512" viewBox="0 0 512.36 512.36" xmlns="http://www.w3.org/2000/svg" xmlns:xlink="http://www.w3.org/1999/xlink" id="Capa_1" overflow="hidden"><g><g><g><path d="M134.438 134.803C64.338 134.803 7.498 191.643 7.498 261.743 7.498 308.967 33.288 350.163 71.547 372.028L80.169 367.321 188.897 365.741 197.172 372.118C235.519 350.277 261.378 309.033 261.378 261.743 261.378 191.643 204.548 134.803 134.438 134.803Z" fill="#98BCE5"/><path d="M94.411 336.275C79.204 315.346 70.233 289.593 70.233 261.743 70.233 202.469 110.873 152.68 165.805 138.714 155.771 136.163 145.261 134.803 134.433 134.803 64.333 134.803 7.493 191.643 7.493 261.743 7.493 308.965 33.281 350.16 71.538 372.026Z" fill="#7BACDF"/><circle cx="134.44" cy="261.74" r="96.94" fill="#5F99D7"/><path d="M112.311 167.35C69.486 177.388 37.5 215.898 37.5 261.74 37.5 307.584 69.489 346.095 112.317 356.13 86.486 332.895 70.237 299.216 70.237 261.736 70.237 224.264 86.484 190.587 112.311 167.35Z" fill="#3C87D0"/><g id="XMLID_171_"><g><path d="M196.697 342.486C196.697 335.496 193.587 328.866 188.207 324.396L152.557 294.796 145.178 287.232 123.675 287.232 116.107 294.796 80.457 324.396C75.087 328.866 71.967 335.496 71.967 342.486L71.537 372.026C90.077 382.616 111.557 388.676 134.437 388.676 157.257 388.676 178.667 382.656 197.177 372.116Z" fill="#ADE194"/><path d="M157.717 299.08 152.557 294.796 145.178 287.232 123.675 287.232 116.107 294.796 80.457 324.396C75.087 328.866 71.967 335.496 71.967 342.486L71.537 372.026C79.062 376.324 87.078 379.861 95.469 382.565L95.88 354.334C95.88 347.344 99 340.714 104.37 336.244L113.812 328.404C117.83 325.068 123.114 323.516 128.248 324.468 130.224 324.834 132.259 325.026 134.337 325.026 143.225 325.026 151.571 321.564 157.823 315.293 160.829 312.288 163.183 308.795 164.829 304.986Z" fill="#97DA7B"/><path d="M152.557 261.656 152.557 291.806C152.557 292.816 152.477 293.796 152.317 294.756 151.687 298.606 149.857 302.046 147.217 304.686 143.927 307.986 139.367 310.026 134.337 310.026 125.277 310.026 117.757 303.416 116.347 294.756 116.187 293.796 116.107 292.816 116.107 291.806L116.107 261.556 116.487 260.736C121.937 263.286 128.017 264.716 134.437 264.716 140.777 264.716 146.787 263.326 152.177 260.836Z" fill="#FED2A4"/><path d="M159.667 173.546 111.417 173.546 96.447 168.626C94.277 167.916 92.037 169.536 92.037 171.826L92.037 213.326 106.441 228.744 168.986 228.744 176.847 213.326 176.847 190.726C176.847 181.236 169.157 173.546 159.667 173.546Z" fill="#A79BA7"/><path d="M116.107 191.102C116.107 188.812 118.347 187.192 120.517 187.902L135.487 192.822 176.847 192.822 176.847 190.725C176.847 181.235 169.157 173.545 159.667 173.545L111.417 173.545 96.447 168.625C94.277 167.915 92.037 169.535 92.037 171.825L92.037 213.325 106.441 228.743 116.107 228.743Z" fill="#918291"/><path d="M176.847 213.326 176.847 240.316C176.847 257.396 166.737 272.126 152.177 278.836 146.787 281.326 140.777 282.716 134.437 282.716 128.017 282.716 121.937 281.286 116.487 278.736 102.037 271.976 92.037 257.316 92.037 240.316L92.037 213.326Z" fill="#FED2A4"/><path d="M140.557 278.736C126.107 271.976 116.107 257.316 116.107 240.316L116.107 213.326 92.037 213.326 92.037 240.316C92.037 257.316 102.037 271.976 116.487 278.736 121.937 281.286 128.017 282.716 134.437 282.716 138.623 282.716 142.66 282.099 146.474 280.971 144.435 280.367 142.456 279.624 140.557 278.736Z" fill="#FFBD86"/></g></g><g id="XMLID_172_"><g><path d="M407.66 7.942C353.98 7.942 310.47 51.452 310.47 105.142 310.47 137.488 326.273 166.136 350.575 183.803L359.145 175.787 454.948 177.276 464.734 183.818C489.049 166.153 504.861 137.498 504.861 105.143 504.86 51.452 461.35 7.942 407.66 7.942Z" fill="#98BCE5"/><path d="M377.669 151.688C370.111 137.864 365.802 122.01 365.802 105.142 365.802 61.067 395.126 23.86 435.324 11.944 426.553 9.344 417.267 7.942 407.652 7.942 353.972 7.942 310.462 51.452 310.462 105.142 310.462 137.488 326.264 166.136 350.566 183.802Z" fill="#7BACDF"/><path d="M407.657 172.326C370.608 172.326 340.467 142.185 340.467 105.136 340.467 68.082 370.608 37.936 407.657 37.936 444.711 37.936 474.857 68.082 474.857 105.136 474.857 142.185 444.711 172.326 407.657 172.326Z" fill="#5F99D7"/><path d="M390.8 170.183C375.269 152.959 365.807 130.157 365.807 105.136 365.807 80.11 375.269 57.304 390.801 40.079 361.884 47.578 340.467 73.902 340.467 105.136 340.467 136.365 361.883 162.684 390.8 170.183Z" fill="#3C87D0"/></g></g><g id="XMLID_173_"><g><g><path d="M407.657 121.646C439.157 121.646 464.687 147.176 464.687 178.676L464.736 183.815C448.556 195.865 429.396 202.326 407.657 202.326 385.927 202.326 366.756 195.853 350.566 183.803L350.627 178.676C350.627 162.926 357.007 148.666 367.337 138.346 377.657 128.026 391.907 121.646 407.657 121.646Z" fill="#F37C7C"/><path d="M407.657 37.936C430.777 37.936 449.517 56.676 449.517 79.786 449.517 102.906 430.777 121.646 407.657 121.646 384.547 121.646 365.807 102.906 365.807 79.786 365.807 56.676 384.547 37.936 407.657 37.936Z" fill="#FFE5C2"/></g></g></g><g id="XMLID_210_"><g><g><path d="M372.96 193.341C372.96 177.591 379.34 163.331 389.67 153.011 399.99 142.691 414.24 136.311 429.99 136.311 436.739 136.311 443.225 137.485 449.234 139.637 438.832 128.565 424.051 121.646 407.658 121.646 391.908 121.646 377.658 128.026 367.338 138.346 357.008 148.666 350.628 162.926 350.628 178.676L350.567 183.803C357.486 188.952 364.958 193.082 372.932 196.125Z" fill="#EE6161"/><path d="M394.926 78.676C394.926 61.256 405.601 46.321 420.742 40.021 416.631 38.672 412.219 37.936 407.657 37.936 384.547 37.936 365.807 56.676 365.807 79.786 365.807 102.906 384.547 121.646 407.657 121.646 413.35 121.646 418.777 120.506 423.724 118.448 407.008 112.96 394.926 97.234 394.926 78.676Z" fill="#FED2A4"/></g></g></g><g id="XMLID_191_"><path d="M407.664 310.028C353.984 310.028 310.474 353.548 310.474 407.228 310.474 439.604 326.305 468.278 350.645 485.943L359.91 481.979 458.888 483.985 464.688 485.945C489.032 468.28 504.864 439.604 504.864 407.227 504.864 353.548 461.354 310.028 407.664 310.028Z" fill="#98BCE5"/><path d="M375.489 453.937C367.88 440.075 363.542 424.163 363.542 407.233 363.542 362.754 393.415 325.252 434.193 313.702 425.756 311.313 416.853 310.033 407.65 310.033 353.97 310.033 310.46 353.553 310.46 407.233 310.46 439.607 326.289 468.28 350.626 485.945Z" fill="#7BACDF"/><g><path d="M407.657 474.426C370.608 474.426 340.467 444.28 340.467 407.226 340.467 370.172 370.608 340.026 407.657 340.026 444.711 340.026 474.857 370.172 474.857 407.226 474.857 444.28 444.711 474.426 407.657 474.426Z" fill="#5F99D7"/></g><path d="M387.783 471.424C372.705 454.3 363.548 431.836 363.548 407.226 363.548 382.616 372.676 360.161 387.754 343.037 360.377 351.532 340.467 377.089 340.467 407.226 340.467 437.363 360.407 462.929 387.783 471.424Z" fill="#3C87D0"/></g><circle cx="407.661" cy="381.887" r="41.857" fill="#FFE5C2"/><path d="M391.485 381.887C391.485 363.251 403.693 347.466 420.527 342.044 416.48 340.741 412.142 340.03 407.661 340.03 384.544 340.03 365.804 358.77 365.804 381.887 365.804 405.004 384.544 423.744 407.661 423.744 412.142 423.744 416.479 423.033 420.527 421.73 403.693 416.308 391.485 400.523 391.485 381.887Z" fill="#FED2A4"/><g id="XMLID_192_"><g><path d="M464.687 485.946C448.677 497.576 428.967 504.426 407.657 504.426 386.347 504.426 366.647 497.566 350.627 485.946L350.627 480.776C350.627 465.026 357.007 450.766 367.337 440.446 377.657 430.126 391.907 423.746 407.657 423.746 439.157 423.746 464.687 449.276 464.687 480.776Z" fill="#FEE97D"/></g></g><path d="M372.334 494.959C372.334 479.209 378.714 464.949 389.044 454.629 399.364 444.309 413.614 437.929 429.364 437.929 436.204 437.929 442.787 439.14 448.864 441.347 438.483 430.509 423.852 423.746 407.658 423.746 391.908 423.746 377.658 430.126 367.338 440.446 357.008 450.766 350.628 465.026 350.628 480.776L350.628 485.946C357.276 490.768 364.578 494.778 372.346 497.811Z" fill="#FEE45A"/></g></g><g><path d="M211.554 191.374C208.761 188.315 204.017 188.101 200.958 190.894 197.899 193.687 197.684 198.431 200.478 201.49 207.324 208.986 212.814 217.544 216.797 226.927 218.01 229.783 220.785 231.498 223.704 231.498 224.681 231.498 225.675 231.306 226.631 230.9 230.444 229.281 232.223 224.879 230.604 221.066 225.957 210.116 219.547 200.126 211.554 191.374Z"/><path d="M415.161 302.801 415.161 291.057C415.161 286.915 411.803 283.557 407.661 283.557 403.519 283.557 400.161 286.915 400.161 291.057L400.161 302.801C359.234 305.712 324.734 332.247 310.261 368.815L249.669 330.925C261.858 310.7 268.88 287.025 268.88 261.74 268.88 236.757 262.022 213.348 250.101 193.284L314.553 152.98C330.875 184.612 362.846 206.904 400.162 209.559L400.162 221.395C400.162 225.537 403.52 228.895 407.662 228.895 411.804 228.895 415.162 225.537 415.162 221.395L415.162 209.559C469.406 205.701 512.361 160.34 512.361 105.132 512.361 47.401 465.393 0.433 407.662 0.433 349.931 0.433 302.962 47.4 302.962 105.131 302.962 116.985 304.946 128.383 308.592 139.016L241.731 180.826C217.168 148.336 178.216 127.3 134.439 127.3 60.31 127.3 0 187.609 0 261.74 0 335.871 60.31 396.18 134.44 396.18 177.912 396.18 216.623 375.434 241.214 343.329L305.646 383.621C303.89 391.211 302.962 399.114 302.962 407.229 302.962 464.96 349.93 511.928 407.661 511.928 465.392 511.928 512.36 464.96 512.36 407.229 512.36 352.02 469.405 306.66 415.161 302.801ZM435.543 120.488C448.5 111.583 457.018 96.665 457.018 79.789 457.018 76.538 456.696 73.361 456.093 70.284 463.176 80.096 467.36 92.131 467.36 105.131 467.36 116.838 463.922 128.153 457.568 137.818 451.608 130.552 444.097 124.604 435.543 120.488ZM373.304 79.789C373.304 60.845 388.717 45.432 407.661 45.432 426.605 45.432 442.018 60.845 442.018 79.789 442.018 98.734 426.605 114.146 407.661 114.146 388.717 114.146 373.304 98.734 373.304 79.789ZM379.779 120.488C371.227 124.602 363.719 130.548 357.759 137.813 351.403 128.15 347.963 116.838 347.963 105.131 347.963 92.13 352.148 80.093 359.231 70.28 358.627 73.358 358.304 76.536 358.304 79.789 358.304 96.665 366.822 111.583 379.779 120.488ZM358.13 178.677C358.13 151.365 380.35 129.146 407.661 129.146 434.972 129.146 457.192 151.365 457.192 178.677L457.192 179.875C442.989 189.318 425.958 194.829 407.661 194.829 389.364 194.829 372.333 189.318 358.13 179.875ZM407.661 15.432C457.121 15.432 497.36 55.671 497.36 105.131 497.36 129.718 487.414 152.024 471.337 168.243 470.375 162.354 468.613 156.734 466.167 151.492 476.634 138.313 482.361 122.051 482.361 105.131 482.361 63.942 448.851 30.432 407.662 30.432 366.473 30.432 332.963 63.942 332.963 105.131 332.963 122.051 338.69 138.312 349.157 151.492 346.711 156.734 344.949 162.355 343.987 168.243 327.91 152.024 317.964 129.718 317.964 105.131 317.962 55.671 358.201 15.432 407.661 15.432ZM79.472 367.756 79.472 342.482C79.472 337.707 81.579 333.218 85.253 330.167L113.428 306.769C118.101 313.278 125.728 317.53 134.334 317.53 142.94 317.53 150.567 313.278 155.24 306.769L183.414 330.166C187.088 333.217 189.195 337.706 189.195 342.481L189.195 367.868C172.784 376.37 154.164 381.179 134.441 381.179 114.631 381.179 95.936 376.326 79.472 367.756ZM169.346 205.823 99.534 205.823 99.534 177.537 109.076 180.672C109.832 180.921 110.622 181.047 111.417 181.047L159.664 181.047C165.003 181.047 169.347 185.391 169.347 190.73L169.347 205.823ZM99.534 220.823 169.347 220.823 169.347 240.312C169.347 259.56 153.688 275.219 134.441 275.219 115.194 275.219 99.535 259.56 99.535 240.312L99.535 220.823ZM134.44 290.218C138.085 290.218 141.635 289.815 145.06 289.069L145.06 291.803C145.06 297.718 140.248 302.53 134.333 302.53 128.418 302.53 123.607 297.718 123.607 291.803L123.607 289.02C127.097 289.796 130.719 290.218 134.44 290.218ZM204.194 358.634 204.194 342.482C204.194 341.491 204.138 340.508 204.045 339.532 226.231 319.678 238.879 291.567 238.879 261.74 238.879 259.81 238.812 257.796 238.667 255.401 238.417 251.267 234.871 248.113 230.729 248.367 226.595 248.617 223.445 252.171 223.695 256.305 223.821 258.391 223.88 260.118 223.88 261.74 223.88 285.306 214.655 307.627 198.297 324.298 196.789 322.219 195.02 320.307 192.997 318.627L160.06 291.274 160.06 283.12C174.596 274.387 184.347 258.468 184.347 240.311L184.347 213.322 184.347 190.73C184.347 177.12 173.274 166.047 159.664 166.047L112.618 166.047 98.794 161.505C95.494 160.42 91.842 160.988 89.029 163.026 86.215 165.064 84.534 168.354 84.534 171.829L84.534 213.323 84.534 240.312C84.534 258.382 94.187 274.239 108.607 282.998L108.607 291.275 75.67 318.627C73.689 320.272 71.953 322.14 70.465 324.168 54.191 307.506 45 285.198 45 261.74 45 239.412 53.311 218.014 68.402 201.489 71.195 198.43 70.98 193.686 67.922 190.893 64.864 188.1 60.12 188.315 57.326 191.373 39.705 210.67 30 235.659 30 261.74 30 291.419 42.584 319.518 64.635 339.36 64.531 340.392 64.472 341.433 64.472 342.482L64.472 358.478C34.52 336.754 15 301.486 15 261.74 15 195.88 68.581 142.3 134.44 142.3 200.299 142.3 253.88 195.881 253.88 261.74 253.88 301.581 234.267 336.923 204.194 358.634ZM407.661 416.244C388.717 416.244 373.304 400.831 373.304 381.887 373.304 362.943 388.717 347.53 407.661 347.53 426.605 347.53 442.018 362.943 442.018 381.887 442.018 400.832 426.605 416.244 407.661 416.244ZM379.779 422.586C371.225 426.701 363.715 432.65 357.755 439.916 351.4 430.251 347.963 418.936 347.963 407.228 347.963 394.233 352.144 382.201 359.223 372.391 358.621 375.464 358.305 378.639 358.305 381.887 358.304 398.763 366.822 413.681 379.779 422.586ZM358.13 481.973 358.13 480.775C358.13 453.463 380.35 431.244 407.661 431.244 434.972 431.244 457.192 453.463 457.192 480.775L457.192 481.973C442.989 491.416 425.958 496.927 407.661 496.927 389.364 496.927 372.333 491.416 358.13 481.973ZM471.336 470.341C470.375 464.457 468.614 458.842 466.172 453.603 473.187 444.759 478.136 434.414 480.579 423.39 481.475 419.346 478.924 415.341 474.879 414.445 470.841 413.551 466.831 416.1 465.934 420.145 464.371 427.195 461.518 433.896 457.567 439.916 451.607 432.649 444.097 426.701 435.543 422.586 448.5 413.681 457.018 398.763 457.018 381.887 457.018 378.637 456.696 375.461 456.093 372.386 460.228 378.117 463.4 384.637 465.313 391.754 466.389 395.754 470.506 398.123 474.502 397.051 478.502 395.976 480.874 391.862 479.799 387.862 471.044 355.284 441.38 332.531 407.661 332.531 366.472 332.531 332.962 366.041 332.962 407.23 332.962 424.15 338.689 440.411 349.156 453.591 346.71 458.833 344.948 464.454 343.986 470.342 327.909 454.123 317.963 431.817 317.963 407.23 317.963 357.77 358.202 317.531 407.662 317.531 457.122 317.531 497.361 357.77 497.361 407.23 497.36 431.816 487.413 454.121 471.336 470.341Z"/><path d="M407.661 242.666C403.519 242.666 400.161 246.024 400.161 250.166L400.161 261.739C400.161 265.881 403.519 269.239 407.661 269.239 411.803 269.239 415.161 265.881 415.161 261.739L415.161 250.166C415.161 246.024 411.803 242.666 407.661 242.666Z"/></g></g></svg>