<?xml version="1.0" encoding="iso-8859-1"?>
<!-- Generator: Adobe Illustrator 19.0.0, SVG Export Plug-In . SVG Version: 6.00 Build 0)  -->
<svg version="1.1" id="Capa_1" xmlns="http://www.w3.org/2000/svg" xmlns:xlink="http://www.w3.org/1999/xlink" x="0px" y="0px"
	 viewBox="0 0 512 512" style="enable-background:new 0 0 512 512;" xml:space="preserve">
<path style="fill:#80868C;" d="M261.334,483.732c-6.775,0-12.269-5.492-12.269-12.269v-78.79c0-6.776,5.493-12.269,12.269-12.269
	c6.775,0,12.269,5.492,12.269,12.269v78.79C273.604,478.238,268.11,483.732,261.334,483.732z"/>
<path style="fill:#C2C8CE;" d="M304.335,503.931l-18.688-18.69h-50.215l-18.689,18.69c-4.792,4.791-12.56,4.791-17.35,0
	c-4.791-4.792-4.791-12.56,0-17.35l22.283-22.283c2.301-2.3,5.422-3.593,8.676-3.593h60.379c3.254,0,6.374,1.293,8.676,3.593
	l22.282,22.283c4.792,4.792,4.791,12.56,0,17.35C316.895,508.722,309.127,508.723,304.335,503.931z"/>
<path style="fill:#3C5A73;" d="M331.38,405.552H214.703c-6.35,0-11.814-4.494-13.038-10.725l-28.521-145.096
	c-1.416-7.201,3.275-14.186,10.475-15.602c7.2-1.412,14.185,3.274,15.602,10.475l26.414,134.372h105.747
	c7.339,0,13.287,5.949,13.287,13.287C344.667,399.603,338.719,405.552,331.38,405.552z"/>
<path style="fill:#FF4619;" d="M363.122,335.121h-50.528l1.41-89.533c0.268-16.992-13.371-31.006-30.424-31.128l-13.098-0.094
	c-25.305-0.181-45.986,20.325-45.917,45.714l0.243,88.849c0.044,16.087,12.449,30.283,30.873,30.146h56.22l0.001-0.032h18.911
	L291.6,477.476c-4.463,11.278,1.062,24.038,12.34,28.501c11.279,4.464,24.039-1.066,28.501-12.34l51.101-128.475
	C389.237,350.773,378.622,335.121,363.122,335.121z"/>
<path style="fill:#414B82;" d="M385.082,357.314c0.128-12.246-9.778-22.193-21.96-22.193h-50.528l-87.674,16.247
	c1.204,14.576,12.457,26.988,29.062,27.674c6.86,0,66.55,0,76.831,0l0,0l0,0L291.6,477.476c-4.794,12.115,1.947,25.685,14.47,29.222
	c10.712,3.029,22.189-2.491,26.372-13.06l51.101-128.475C384.546,362.626,385.054,359.966,385.082,357.314z"/>
<path style="fill:#C8E6EB;" d="M446.574,318.2h-58.309c-6.901,0-12.497-5.594-12.497-12.497c0-6.902,5.595-12.497,12.497-12.497
	h50.907l28.432-51.899c3.317-6.053,10.912-8.271,16.964-4.956c6.053,3.316,8.271,10.911,4.956,16.964l-31.99,58.391
	C455.34,315.711,451.14,318.2,446.574,318.2z"/>
<path style="fill:#BA6746;" d="M311.023,313.929l-48.359-66.87c-5.686-7.862-3.922-18.844,3.94-24.529
	c7.861-5.685,18.844-3.921,24.528,3.941l41.871,57.899l58.157-10.586c9.546-1.738,18.69,4.592,20.429,14.137
	c1.737,9.545-4.593,18.692-14.138,20.428l-69.049,12.568C321.776,322.125,315.003,319.433,311.023,313.929z"/>
<path style="fill:#FF7350;" d="M320.401,266.941l-29.268-40.471c-5.685-7.862-16.667-9.626-24.528-3.941
	c-7.862,5.685-9.626,16.667-3.94,24.529l29.174,40.342L320.401,266.941z"/>
<path style="fill:#59250F;" d="M390.985,507.524c-8.282,0-14.996-6.714-14.996-14.996V334.961c0-8.282,6.714-14.996,14.996-14.996
	c8.282,0,14.996,6.714,14.996,14.996v157.567C405.981,500.81,399.267,507.524,390.985,507.524z"/>
<path style="fill:#80391B;" d="M512,318.2H379.352c-10.164,0-18.403,8.239-18.403,18.403c0,10.164,8.239,18.403,18.403,18.403H512
	L512,318.2L512,318.2z"/>
<circle style="fill:#BA6746;" cx="303.745" cy="164.444" r="38.773"/>
<path style="fill:#C8E6EB;" d="M428.914,4.474c-45.46,0-82.313,24.615-82.313,54.98c0,13.568,7.373,25.981,19.571,35.569
	l-9.391,23.676c-0.669,1.686-0.171,3.61,1.231,4.761c1.402,1.151,3.386,1.263,4.909,0.278l25.431-16.449
	c11.975,4.541,25.809,7.146,40.563,7.146c45.46,0,82.313-24.615,82.313-54.981S474.374,4.474,428.914,4.474z"/>
<path style="fill:#FFFFFF;" d="M462.764,53.912c-1.01-1.329-2.583-2.108-4.252-2.108h-21.696V32.106
	c0-4.365-3.539-7.903-7.903-7.903c-4.364,0-7.903,3.538-7.903,7.903v19.698h-21.696c-1.669,0-3.242,0.78-4.252,2.108
	c-1.01,1.329-1.341,3.053-0.894,4.661l8.36,30.096c0.642,2.311,2.746,3.911,5.146,3.911h42.477c2.399,0,4.504-1.6,5.146-3.911
	l8.36-30.096C464.105,56.965,463.774,55.241,462.764,53.912z"/>
<path style="fill:#FA503C;" d="M455.298,88.668c-0.642,2.311-2.746,3.911-5.146,3.911h-42.477c-2.399,0-4.504-1.6-5.146-3.911
	l-8.36-30.095c-0.447-1.608-0.116-3.332,0.894-4.661c1.01-1.329,2.583-2.108,4.252-2.108h59.197c1.669,0,3.242,0.78,4.252,2.108
	c1.01,1.329,1.341,3.053,0.894,4.661L455.298,88.668z"/>
<path style="fill:#FA2D14;" d="M462.764,53.912c-1.01-1.329-2.583-2.108-4.252-2.108h-29.734v40.776h21.374
	c2.399,0,4.504-1.6,5.146-3.911l8.36-30.096C464.105,56.965,463.774,55.241,462.764,53.912z"/>
<path style="fill:#414B82;" d="M131.871,136.859l-48.628-6.658c-15.06-2.062-28.94,8.475-31.001,23.534L33.089,293.64l0,0
	l8.724,91.179l-39.962,91.7c-4.888,11.215,0.242,24.268,11.457,29.156c11.26,4.907,24.289-0.289,29.155-11.457l42.3-97.062
	c1.532-3.515,2.125-7.367,1.723-11.18l-9.127-86.274l58.776,8.048l19.275-139.888C157.468,152.801,146.931,138.92,131.871,136.859z"
	/>
<path style="fill:#343E6B;" d="M109.018,486.455l-5.175-105.313L88.057,289.68c-2.08-12.056,6.005-23.514,18.06-25.595
	c12.06-2.082,23.514,6.005,25.596,18.061l16.016,92.793c0.153,0.887,0.252,1.782,0.296,2.68l5.241,106.661
	c0.601,12.219-8.818,22.611-21.037,23.212C120.006,508.09,109.617,498.674,109.018,486.455z"/>
<path style="fill:#64AFFF;" d="M136.132,307.749L33.088,293.64l19.155-139.904c2.062-15.06,15.942-25.597,31.001-23.534
	l48.608,6.655c7.235,0.991,13.78,4.817,18.194,10.634c4.414,5.817,6.334,13.152,5.339,20.386L136.132,307.749z"/>
<circle style="fill:#FFB69E;" cx="136.802" cy="80.288" r="40.743"/>
<path style="fill:#FFB69E;" d="M196.686,275.047c-2.001,0.16-4.061-0.005-6.113-0.538l-71.38-18.538
	c-5.983-1.554-10.79-5.998-12.808-11.843l-23.299-79.527c-3.327-9.636,1.789-20.145,11.425-23.472
	c9.634-3.333,20.145,1.789,23.472,11.425l20.069,70.172l61.801,16.051c9.867,2.562,15.789,12.638,13.226,22.506
	C211.049,269.098,204.305,274.438,196.686,275.047z"/>
<path style="fill:#78BEFF;" d="M97.877,215.092l35.191-9.792l-15.086-52.745c-3.327-9.636-13.838-14.758-23.472-11.425
	c-9.636,3.327-14.752,13.836-11.425,23.472L97.877,215.092z"/>
<g>
</g>
<g>
</g>
<g>
</g>
<g>
</g>
<g>
</g>
<g>
</g>
<g>
</g>
<g>
</g>
<g>
</g>
<g>
</g>
<g>
</g>
<g>
</g>
<g>
</g>
<g>
</g>
<g>
</g>
</svg>
